<svg xmlns="http://www.w3.org/2000/svg" xmlns:xlink="http://www.w3.org/1999/xlink" id="Layer_1" x="0px" y="0px" width="300px" height="100px" viewBox="0 0 300 100" xml:space="preserve"><g>	<g>		<path fill="#052E4C" d="M111.381,56.437c-0.254-0.252-0.381-0.561-0.381-0.924v-35.43c0-0.399,0.117-0.725,0.354-0.979   c0.235-0.253,0.552-0.381,0.952-0.381h14.575c4.386,0,7.832,1.034,10.333,3.102s3.752,5.08,3.752,9.034   c0,3.919-1.25,6.885-3.752,8.898s-5.947,3.02-10.333,3.02h-7.995v12.736c0,0.398-0.127,0.717-0.38,0.951   c-0.254,0.236-0.581,0.354-0.979,0.354h-5.221C111.942,56.818,111.634,56.693,111.381,56.437z M126.609,36.683   c2.102,0,3.707-0.499,4.813-1.498c1.105-0.996,1.658-2.457,1.658-4.38c0-1.886-0.535-3.355-1.604-4.408   c-1.069-1.052-2.691-1.579-4.867-1.579h-7.832v11.865H126.609z"></path>		<path fill="#052E4C" d="M145.317,23.512c-0.254-0.254-0.381-0.563-0.381-0.925v-3.973c0-0.399,0.127-0.726,0.381-0.979   c0.252-0.254,0.561-0.381,0.924-0.381h5.004c0.398,0,0.725,0.127,0.979,0.381c0.253,0.254,0.381,0.581,0.381,0.979v3.973   c0,0.363-0.136,0.671-0.408,0.925c-0.271,0.254-0.59,0.38-0.951,0.38h-5.004C145.878,23.893,145.569,23.766,145.317,23.512z    M145.534,56.437c-0.254-0.252-0.381-0.561-0.381-0.924V29.825c0-0.398,0.127-0.716,0.381-0.952   c0.254-0.235,0.563-0.354,0.924-0.354h4.623c0.362,0,0.671,0.127,0.926,0.381c0.252,0.254,0.381,0.563,0.381,0.925v25.688   c0,0.363-0.129,0.672-0.381,0.924c-0.255,0.256-0.563,0.381-0.926,0.381h-4.623C146.097,56.818,145.788,56.693,145.534,56.437z"></path>		<path fill="#052E4C" d="M158.858,56.437c-0.254-0.252-0.381-0.561-0.381-0.924V29.879c0-0.399,0.127-0.726,0.381-0.979   c0.254-0.253,0.563-0.381,0.925-0.381h4.46c0.398,0,0.725,0.127,0.979,0.381c0.253,0.254,0.381,0.581,0.381,0.979v2.231   c1.812-2.395,4.423-3.592,7.831-3.592h2.283c0.399,0,0.716,0.118,0.952,0.354c0.235,0.236,0.354,0.554,0.354,0.952v3.974   c0,0.363-0.118,0.672-0.354,0.925c-0.236,0.255-0.553,0.381-0.952,0.381h-4.296c-1.705,0-3.046,0.489-4.024,1.47   c-0.979,0.979-1.469,2.322-1.469,4.027v14.912c0,0.363-0.127,0.672-0.38,0.924c-0.255,0.256-0.563,0.381-0.925,0.381h-4.841   C159.421,56.818,159.112,56.693,158.858,56.437z"></path>		<path fill="#052E4C" d="M180.341,23.512c-0.255-0.254-0.381-0.563-0.381-0.925v-3.973c0-0.399,0.126-0.726,0.381-0.979   c0.253-0.254,0.562-0.381,0.924-0.381h5.004c0.398,0,0.725,0.127,0.979,0.381s0.382,0.581,0.382,0.979v3.973   c0,0.363-0.137,0.671-0.408,0.925c-0.272,0.254-0.59,0.38-0.952,0.38h-5.004C180.902,23.893,180.594,23.766,180.341,23.512z    M180.558,56.437c-0.254-0.252-0.38-0.561-0.38-0.924V29.825c0-0.398,0.126-0.716,0.38-0.952c0.254-0.235,0.563-0.354,0.926-0.354   h4.622c0.362,0,0.671,0.127,0.924,0.381c0.254,0.254,0.382,0.563,0.382,0.925v25.688c0,0.363-0.128,0.672-0.382,0.924   c-0.253,0.256-0.562,0.381-0.924,0.381h-4.622C181.12,56.818,180.812,56.693,180.558,56.437z"></path>		<path fill="#052E4C" d="M193.883,56.437c-0.255-0.252-0.381-0.561-0.381-0.924V29.825c0-0.398,0.126-0.716,0.381-0.952   c0.254-0.235,0.562-0.354,0.925-0.354h4.296c0.399,0,0.716,0.118,0.952,0.354c0.235,0.236,0.354,0.554,0.354,0.952v1.851   c1.958-2.467,4.586-3.701,7.886-3.701c4.024,0,6.834,1.615,8.43,4.843c0.87-1.45,2.103-2.62,3.698-3.51   c1.595-0.889,3.317-1.333,5.167-1.333c2.973,0,5.401,1.016,7.287,3.048c1.885,2.032,2.828,4.989,2.828,8.87v15.621   c0,0.363-0.118,0.672-0.354,0.924c-0.236,0.256-0.553,0.381-0.951,0.381h-4.515c-0.362,0-0.672-0.125-0.925-0.381   c-0.254-0.252-0.38-0.561-0.38-0.924V40.328c0-2.285-0.481-3.936-1.441-4.951c-0.961-1.016-2.222-1.523-3.779-1.523   c-1.415,0-2.621,0.517-3.617,1.551c-0.997,1.033-1.496,2.676-1.496,4.924v15.186c0,0.363-0.118,0.672-0.354,0.924   c-0.236,0.256-0.553,0.381-0.951,0.381h-4.568c-0.363,0-0.672-0.125-0.925-0.381c-0.255-0.252-0.381-0.561-0.381-0.924V40.328   c0-2.248-0.489-3.891-1.468-4.924c-0.979-1.034-2.23-1.551-3.753-1.551c-1.414,0-2.62,0.517-3.617,1.551   c-0.997,1.033-1.495,2.676-1.495,4.924v15.186c0,0.363-0.118,0.672-0.354,0.924c-0.236,0.256-0.554,0.381-0.952,0.381h-4.622   C194.444,56.818,194.137,56.693,193.883,56.437z"></path>		<path fill="#052E4C" d="M241.688,23.512c-0.254-0.254-0.381-0.563-0.381-0.925v-3.973c0-0.399,0.127-0.726,0.381-0.979   c0.253-0.254,0.562-0.381,0.925-0.381h5.003c0.399,0,0.726,0.127,0.979,0.381c0.254,0.254,0.381,0.581,0.381,0.979v3.973   c0,0.363-0.136,0.671-0.407,0.925c-0.272,0.254-0.59,0.38-0.952,0.38h-5.003C242.249,23.893,241.94,23.766,241.688,23.512z    M241.905,56.437c-0.255-0.252-0.381-0.561-0.381-0.924V29.825c0-0.398,0.126-0.716,0.381-0.952   c0.254-0.235,0.562-0.354,0.924-0.354h4.623c0.362,0,0.671,0.127,0.925,0.381c0.253,0.254,0.381,0.563,0.381,0.925v25.688   c0,0.363-0.128,0.672-0.381,0.924c-0.254,0.256-0.563,0.381-0.925,0.381h-4.623C242.467,56.818,242.159,56.693,241.905,56.437z"></path>		<path fill="#052E4C" d="M256.915,53.853c-1.957-2.34-3.027-5.471-3.208-9.389l-0.055-1.795l0.055-1.797   c0.144-3.845,1.205-6.956,3.181-9.333c1.976-2.376,4.795-3.565,8.457-3.565c3.481,0,6.255,1.197,8.321,3.592V19.484   c0-0.398,0.127-0.716,0.381-0.952c0.253-0.236,0.562-0.354,0.925-0.354h4.731c0.398,0,0.716,0.118,0.952,0.354   c0.235,0.236,0.354,0.554,0.354,0.952v36.029c0,0.363-0.118,0.672-0.354,0.924c-0.236,0.256-0.554,0.381-0.952,0.381h-4.405   c-0.363,0-0.671-0.125-0.925-0.381c-0.254-0.252-0.38-0.561-0.38-0.924V53.5c-1.995,2.576-4.878,3.863-8.648,3.863   C261.683,57.363,258.873,56.193,256.915,53.853z M272.007,49.5c0.998-1.324,1.551-2.967,1.659-4.926   c0.036-0.436,0.055-1.125,0.055-2.068c0-0.98-0.019-1.688-0.055-2.123c-0.073-1.813-0.635-3.354-1.686-4.625   c-1.052-1.27-2.575-1.904-4.568-1.904c-3.88,0-5.946,2.395-6.2,7.184l-0.054,1.633l0.054,1.633c0.254,4.789,2.32,7.184,6.2,7.184   C269.479,51.486,271.01,50.824,272.007,49.5z"></path>	</g>	<g opacity="0.74">		<g>			<path fill="#052E4C" d="M197.854,83.392c-0.104-0.113-0.156-0.256-0.156-0.43V65.939c0-0.191,0.052-0.344,0.156-0.457    s0.243-0.17,0.417-0.17h10.577c0.191,0,0.343,0.057,0.456,0.17s0.169,0.266,0.169,0.457v0.965c0,0.172-0.056,0.316-0.169,0.43    s-0.265,0.168-0.456,0.168h-8.728v6.18h8.206c0.191,0,0.344,0.057,0.456,0.17c0.113,0.113,0.17,0.256,0.17,0.43v0.99    c0,0.174-0.062,0.318-0.183,0.43c-0.122,0.113-0.27,0.17-0.443,0.17h-8.206v7.092c0,0.174-0.062,0.316-0.183,0.43    s-0.269,0.17-0.442,0.17h-1.225C198.097,83.562,197.958,83.505,197.854,83.392z"></path>			<path fill="#052E4C" d="M211.987,67.281c-0.114-0.113-0.17-0.256-0.17-0.43v-1.355c0-0.174,0.056-0.322,0.17-0.443    c0.111-0.121,0.255-0.184,0.429-0.184h1.538c0.173,0,0.321,0.063,0.442,0.184s0.182,0.27,0.182,0.443v1.355    c0,0.174-0.061,0.316-0.182,0.43s-0.27,0.17-0.442,0.17h-1.538C212.242,67.451,212.099,67.394,211.987,67.281z M212.194,83.392    c-0.112-0.113-0.168-0.256-0.168-0.43V70.605c0-0.174,0.056-0.316,0.168-0.43c0.113-0.113,0.257-0.17,0.431-0.17h1.146    c0.173,0,0.316,0.057,0.43,0.17c0.112,0.113,0.17,0.256,0.17,0.43v12.357c0,0.174-0.058,0.316-0.17,0.43    c-0.113,0.113-0.257,0.17-0.43,0.17h-1.146C212.451,83.562,212.308,83.505,212.194,83.392z"></path>			<path fill="#052E4C" d="M217.927,83.392c-0.113-0.113-0.17-0.256-0.17-0.43V70.605c0-0.174,0.057-0.316,0.17-0.43    c0.112-0.113,0.256-0.17,0.43-0.17h1.12c0.19,0,0.339,0.053,0.442,0.156c0.104,0.104,0.157,0.252,0.157,0.443v1.146    c0.521-0.643,1.124-1.139,1.811-1.486c0.686-0.348,1.541-0.521,2.566-0.521c1.666,0,2.961,0.535,3.881,1.605    c0.921,1.068,1.381,2.48,1.381,4.236v7.377c0,0.174-0.057,0.316-0.169,0.43c-0.113,0.113-0.257,0.17-0.43,0.17h-1.199    c-0.173,0-0.316-0.057-0.43-0.17c-0.112-0.113-0.169-0.256-0.169-0.43v-7.221c0-1.252-0.304-2.227-0.912-2.922    c-0.608-0.693-1.477-1.041-2.604-1.041c-1.112,0-1.998,0.352-2.658,1.055c-0.659,0.705-0.989,1.674-0.989,2.908v7.221    c0,0.174-0.057,0.316-0.17,0.43s-0.257,0.17-0.43,0.17h-1.198C218.183,83.562,218.039,83.505,217.927,83.392z"></path>			<path fill="#052E4C" d="M233.962,79v-6.986h-2.059c-0.174,0-0.313-0.053-0.417-0.156c-0.104-0.105-0.155-0.244-0.155-0.418    v-0.834c0-0.174,0.052-0.316,0.155-0.43c0.104-0.113,0.243-0.17,0.417-0.17h2.059v-4.354c0-0.174,0.052-0.316,0.156-0.43    s0.243-0.17,0.417-0.17h1.146c0.173,0,0.316,0.057,0.43,0.17c0.112,0.113,0.169,0.256,0.169,0.43v4.354h3.23    c0.174,0,0.317,0.057,0.431,0.17c0.112,0.113,0.169,0.256,0.169,0.43v0.834c0,0.174-0.057,0.313-0.169,0.418    c-0.113,0.104-0.257,0.156-0.431,0.156h-3.23v6.805c0,0.885,0.144,1.555,0.431,2.006c0.286,0.453,0.776,0.678,1.472,0.678h1.589    c0.173,0,0.313,0.059,0.417,0.17c0.104,0.113,0.156,0.258,0.156,0.43v0.861c0,0.174-0.052,0.316-0.156,0.43    s-0.244,0.17-0.417,0.17H238C235.308,83.562,233.962,82.041,233.962,79z"></path>			<path fill="#052E4C" d="M243.496,82.167c-1.06-1.104-1.641-2.611-1.745-4.523l-0.025-0.887l0.025-0.861    c0.104-1.877,0.686-3.371,1.745-4.484c1.06-1.111,2.476-1.668,4.247-1.668c1.91,0,3.391,0.609,4.441,1.826    s1.577,2.867,1.577,4.953v0.469c0,0.174-0.057,0.318-0.17,0.43c-0.112,0.113-0.256,0.17-0.43,0.17h-9.04v0.236    c0.052,1.129,0.399,2.094,1.042,2.893c0.643,0.801,1.493,1.199,2.554,1.199c0.815,0,1.479-0.16,1.992-0.482    s0.898-0.656,1.16-1.004c0.156-0.209,0.277-0.334,0.364-0.377c0.087-0.045,0.234-0.066,0.442-0.066h1.146    c0.156,0,0.291,0.045,0.404,0.131c0.112,0.088,0.17,0.201,0.17,0.338c0,0.383-0.235,0.844-0.704,1.383    c-0.47,0.539-1.133,1.004-1.993,1.395s-1.846,0.586-2.957,0.586C245.972,83.822,244.556,83.271,243.496,82.167z M251.391,75.82    v-0.078c0-1.217-0.33-2.207-0.99-2.973s-1.546-1.146-2.657-1.146c-1.129,0-2.015,0.381-2.657,1.146s-0.964,1.756-0.964,2.973    v0.078H251.391z"></path>			<path fill="#052E4C" d="M257.486,82.246c-1.042-1.051-1.589-2.525-1.641-4.418l-0.026-1.045l0.026-1.041    c0.052-1.895,0.599-3.367,1.641-4.42c1.042-1.051,2.492-1.578,4.351-1.578c1.251,0,2.307,0.223,3.166,0.666    s1.502,0.994,1.928,1.654c0.426,0.662,0.655,1.322,0.69,1.982c0.018,0.156-0.039,0.295-0.169,0.416    c-0.13,0.123-0.273,0.184-0.431,0.184h-1.146c-0.173,0-0.304-0.039-0.39-0.117c-0.088-0.078-0.175-0.223-0.262-0.43    c-0.313-0.852-0.742-1.457-1.289-1.813c-0.548-0.355-1.238-0.535-2.071-0.535c-1.095,0-1.963,0.34-2.605,1.018    s-0.989,1.711-1.041,3.102l-0.027,0.912l0.027,0.914c0.052,1.391,0.398,2.424,1.041,3.102s1.511,1.016,2.605,1.016    c0.852,0,1.546-0.178,2.084-0.533s0.964-0.959,1.276-1.813c0.087-0.209,0.174-0.352,0.262-0.43    c0.086-0.078,0.217-0.117,0.39-0.117h1.146c0.157,0,0.301,0.061,0.431,0.182c0.13,0.123,0.187,0.262,0.169,0.418    c-0.035,0.643-0.265,1.295-0.69,1.955c-0.426,0.662-1.068,1.217-1.928,1.668c-0.859,0.453-1.915,0.678-3.166,0.678    C259.979,83.822,258.528,83.296,257.486,82.246z"></path>			<path fill="#052E4C" d="M270.421,83.392c-0.113-0.113-0.169-0.256-0.169-0.43V65.652c0-0.191,0.056-0.34,0.169-0.443    c0.113-0.105,0.257-0.156,0.431-0.156h1.198c0.19,0,0.339,0.051,0.442,0.156c0.104,0.104,0.156,0.252,0.156,0.443v6.074    c0.504-0.643,1.099-1.135,1.785-1.473c0.686-0.34,1.532-0.51,2.54-0.51c1.667,0,2.965,0.535,3.895,1.605    c0.929,1.068,1.394,2.48,1.394,4.236v7.377c0,0.174-0.056,0.316-0.169,0.43s-0.257,0.17-0.43,0.17h-1.225    c-0.174,0-0.317-0.057-0.43-0.17c-0.113-0.113-0.17-0.256-0.17-0.43v-7.221c0-1.252-0.304-2.227-0.912-2.922    c-0.607-0.693-1.484-1.041-2.631-1.041c-1.111,0-1.997,0.352-2.657,1.055c-0.66,0.705-0.99,1.674-0.99,2.908v7.221    c0,0.174-0.056,0.316-0.169,0.43c-0.112,0.113-0.256,0.17-0.43,0.17h-1.198C270.678,83.562,270.534,83.505,270.421,83.392z"></path>		</g>	</g>	<g>		<linearGradient id="SVGID_1_" gradientUnits="userSpaceOnUse" x1="57.1255" y1="58.1675" x2="57.1255" y2="37.6934">			<stop offset="0" style="stop-color:#0073F1"></stop>			<stop offset="1" style="stop-color:#2FB0BF"></stop>		</linearGradient>		<path fill="url(#SVGID_1_)" d="M53.888,22.781l0-0.001c0.709-1.172,1.889-1.844,3.237-1.844c1.348,0,2.528,0.672,3.237,1.845   l7.686,12.693h6.831l-9.576-15.815C63.538,16.741,60.481,15,57.125,15s-6.412,1.742-8.177,4.658l-9.576,15.816h6.83L53.888,22.781   z"></path>		<g>			<linearGradient id="SVGID_2_" gradientUnits="userSpaceOnUse" x1="45.9082" y1="84.9995" x2="45.9082" y2="58.4402">				<stop offset="0" style="stop-color:#0073F1"></stop>				<stop offset="1" style="stop-color:#2FB0BF"></stop>			</linearGradient>			<rect x="42.32" y="55.105" fill="url(#SVGID_2_)" width="7.176" height="29.895"></rect>			<linearGradient id="SVGID_3_" gradientUnits="userSpaceOnUse" x1="68.3423" y1="84.9995" x2="68.3423" y2="63.0212">				<stop offset="0" style="stop-color:#0073F1"></stop>				<stop offset="1" style="stop-color:#2FB0BF"></stop>			</linearGradient>			<rect x="64.755" y="60.261" fill="url(#SVGID_3_)" width="7.175" height="24.738"></rect>			<linearGradient id="SVGID_4_" gradientUnits="userSpaceOnUse" x1="57.1255" y1="84.9995" x2="57.1255" y2="31.7342">				<stop offset="0" style="stop-color:#0073F1"></stop>				<stop offset="1" style="stop-color:#2FB0BF"></stop>			</linearGradient>			<polygon fill="url(#SVGID_4_)" points="53.538,30.97 53.538,85 60.713,85 60.713,30.97 57.125,25.045    "></polygon>			<linearGradient id="SVGID_5_" gradientUnits="userSpaceOnUse" x1="83.1318" y1="84.9995" x2="83.1318" y2="44.5028">				<stop offset="0" style="stop-color:#0073F1"></stop>				<stop offset="1" style="stop-color:#2FB0BF"></stop>			</linearGradient>			<path fill="url(#SVGID_5_)" d="M94.97,69.119L76.987,39.417h-2.109h-5.127l19.986,33.008c0.779,1.289,0.814,2.85,0.092,4.172    s-2.038,2.113-3.521,2.113H75.872V85h10.438c3.745,0,7.07-1.996,8.895-5.34C97.027,76.316,96.94,72.375,94.97,69.119z"></path>			<linearGradient id="SVGID_6_" gradientUnits="userSpaceOnUse" x1="31.1191" y1="84.9995" x2="31.1191" y2="44.5028">				<stop offset="0" style="stop-color:#0073F1"></stop>				<stop offset="1" style="stop-color:#2FB0BF"></stop>			</linearGradient>			<path fill="url(#SVGID_6_)" d="M24.421,76.597c-0.722-1.322-0.688-2.883,0.091-4.17L44.5,39.417h-5.127h-2.109L19.28,69.121    c-1.969,3.254-2.056,7.195-0.232,10.539S24.196,85,27.942,85h10.438V78.71H27.942C26.459,78.71,25.144,77.919,24.421,76.597z"></path>		</g>	</g></g></svg>